# xmcd
#
# Track frame offsets:
#	150
#	4802
#	26786
#	37923
#	51675
#	68552
#	79474
#	96864
#	117886
#	131475
#	145362
#	155597
#	177826
#	191791
#	206818
#	220430
#	237062
#	252042
#	273199
#	302821
#
# Disc length: 4194 seconds
#
# Revision: 0
# Processed by: cddbd v1.5PL3 Copyright (c) Steve Scherf et al.
# Submitted via: dBpowerAMP V4.0
#
DISCID=26106014
DTITLE=John Denver - An Evening With John Denver
DYEAR=1900
DGENRE=
TTITLE0=The Music Is You
TTITLE1=Farewell Andromeda
TTITLE2=Mother Natures Son
TTITLE3=Summer
TTITLE4=Today
TTITLE5=Saturday Night In Toledo, Ohio
TTITLE6=Matthew
TTITLE7=Sweet Surrender
TTITLE8=Grandma's Feather Bed
TTITLE9=Annie's Song
TTITLE10=The Eagle And The Hawk
TTITLE11=My Sweet Lady
TTITLE12=Annie's Other Song
TTITLE13=Rhymes and Reasons
TTITLE14=Forest Lawn
TTITLE15=Thank God I'm A Country Boy
TTITLE16=Take Me Home Country Road
TTITLE17=Poems, Prayers and Promises
TTITLE18=Rocky Mountain High
TTITLE19=This Old Guitar
EXTD=
EXTT0=
EXTT1=
EXTT2=
EXTT3=
EXTT4=
EXTT5=
EXTT6=
EXTT7=
EXTT8=
EXTT9=
EXTT10=
EXTT11=
EXTT12=
EXTT13=
EXTT14=
EXTT15=
EXTT16=
EXTT17=
EXTT18=
EXTT19=
PLAYORDER=
